<svg width="48" height="48" viewBox="0 0 48 48" fill="none" xmlns="http://www.w3.org/2000/svg">
<path d="M40.0499 21.19C40.0499 21.19 46.3099 19.67 46.3099 25.5C46.3099 32.58 35.1299 35.73 35.1299 35.73" stroke="#3A3734" stroke-width="2" stroke-miterlimit="10" stroke-linecap="round" stroke-linejoin="round"/>
<path d="M28.6102 1C29.7502 2.35 29.8302 4.29 28.8202 5.73C27.8402 7.12 27.8802 8.98 28.9202 10.32" stroke="#3A3734" stroke-width="2" stroke-miterlimit="10" stroke-linecap="round" stroke-linejoin="round"/>
<path d="M20.6503 1C21.7903 2.35 21.8703 4.29 20.8603 5.73C19.8803 7.12 19.9203 8.98 20.9603 10.32" stroke="#3A3734" stroke-width="2" stroke-miterlimit="10" stroke-linecap="round" stroke-linejoin="round"/>
<path d="M12.6801 1C13.8201 2.35 13.9001 4.29 12.8901 5.73C11.9101 7.12 11.95 8.98 12.99 10.32" stroke="#3A3734" stroke-width="2" stroke-miterlimit="10" stroke-linecap="round" stroke-linejoin="round"/>
<path d="M31.28 46.8H12.92C8.48 46.8 4.2 45.31 1 42.65H43.21C40 45.31 35.72 46.8 31.28 46.8Z" stroke="#3A3734" stroke-width="2" stroke-miterlimit="10" stroke-linecap="round" stroke-linejoin="round"/>
<path d="M21.5599 19H3.64995C3.64995 19 1.64994 37.4 17.8199 42.65" stroke="#3A3734" stroke-width="2" stroke-miterlimit="10" stroke-linecap="round" stroke-linejoin="round"/>
<path d="M21.5601 19H39.4701C39.4701 19 41.4701 37.4 25.3001 42.65" stroke="#3A3734" stroke-width="2" stroke-miterlimit="10" stroke-linecap="round" stroke-linejoin="round"/>
</svg>
