<svg width="47" height="49" viewBox="0 0 47 49" fill="none" xmlns="http://www.w3.org/2000/svg">
<path d="M18.3801 42.8144C18.5793 40.1045 15.8295 37.6937 12.2383 37.4297C8.64714 37.1658 5.57446 39.1486 5.37529 41.8585C5.17611 44.5684 7.92587 46.9792 11.517 47.2432C15.1082 47.5071 18.1809 45.5243 18.3801 42.8144Z" stroke="#3A3734" stroke-width="2" stroke-miterlimit="10" stroke-linecap="round" stroke-linejoin="round"/>
<path d="M5.75488 41.6019C5.75488 41.6019 9.53489 43.6719 11.5549 42.6519C13.5849 41.6419 15.0149 42.0719 18.2549 43.5419" stroke="#3A3734" stroke-width="2" stroke-miterlimit="10" stroke-linecap="round" stroke-linejoin="round"/>
<path d="M11.5545 37.2919C10.7845 35.0019 12.3045 32.2719 15.1445 30.6519C18.2745 28.8619 21.8945 29.3319 23.2445 31.6919C24.5945 34.0519 23.1545 37.4119 20.0245 39.2019C19.2445 39.6519 18.4345 39.9519 17.6345 40.1219" stroke="#3A3734" stroke-width="2" stroke-miterlimit="10" stroke-linecap="round" stroke-linejoin="round"/>
<path d="M23.0844 32.1019C23.0844 32.1019 18.7944 32.5019 17.6844 34.4719C16.5744 36.4419 15.2844 36.8119 11.7744 37.4119" stroke="#3A3734" stroke-width="2" stroke-miterlimit="10" stroke-linecap="round" stroke-linejoin="round"/>
<path d="M10.7051 34.307C13.5817 32.6624 14.9071 29.5685 13.6654 27.3967C12.4238 25.2248 9.08523 24.7974 6.2086 26.442C3.33197 28.0866 2.00657 31.1804 3.24824 33.3523C4.48991 35.5241 7.82845 35.9516 10.7051 34.307Z" stroke="#3A3734" stroke-width="2" stroke-miterlimit="10" stroke-linecap="round" stroke-linejoin="round"/>
<path d="M13.5246 27.7819C13.5246 27.7819 9.57461 28.1419 8.55461 29.9619C7.52461 31.7819 6.20461 32.1919 2.97461 32.7319" stroke="#3A3734" stroke-width="2" stroke-miterlimit="10" stroke-linecap="round" stroke-linejoin="round"/>
<path d="M8.33519 21.1331C11.63 20.7788 14.0842 18.4751 13.8167 15.9875C13.5493 13.4999 10.6615 11.7705 7.36668 12.1247C4.07186 12.4789 1.61769 14.7827 1.88514 17.2703C2.15258 19.7579 5.04037 21.4873 8.33519 21.1331Z" stroke="#3A3734" stroke-width="2" stroke-miterlimit="10" stroke-linecap="round" stroke-linejoin="round"/>
<path d="M13.525 16.2819C13.525 16.2819 9.765 15.0319 8.095 16.2919C6.425 17.5419 5.055 17.3919 1.875 16.6019" stroke="#3A3734" stroke-width="2" stroke-miterlimit="10" stroke-linecap="round" stroke-linejoin="round"/>
<path d="M41.6105 42.8478C43.6109 40.2061 43.6158 36.8402 41.6213 35.3299C39.6269 33.8195 36.3883 34.7366 34.3878 37.3783C32.3873 40.02 32.3825 43.3859 34.3769 44.8963C36.3714 46.4066 39.61 45.4895 41.6105 42.8478Z" stroke="#3A3734" stroke-width="2" stroke-miterlimit="10" stroke-linecap="round" stroke-linejoin="round"/>
<path d="M41.6448 35.7419C41.6448 35.7419 38.1548 37.6319 37.9248 39.7019C37.6948 41.7719 36.6348 42.6719 33.8848 44.4419" stroke="#3A3734" stroke-width="2" stroke-miterlimit="10" stroke-linecap="round" stroke-linejoin="round"/>
<path d="M6.36475 35.2618L9.85474 37.5918" stroke="#3A3734" stroke-width="2" stroke-miterlimit="10" stroke-linecap="round" stroke-linejoin="round"/>
<path d="M18.3248 43.2419L22.8548 46.2719L38.2848 28.5119C41.9548 23.0219 40.7448 16.9619 35.2548 13.2919L34.7048 12.9219C29.2148 9.2519 21.7248 10.7519 18.0648 16.2419L11.8848 25.4919" stroke="#3A3734" stroke-width="2" stroke-miterlimit="10" stroke-linecap="round" stroke-linejoin="round"/>
<path d="M6.36475 35.2618L9.85474 37.5918" stroke="#3A3734" stroke-width="2" stroke-miterlimit="10" stroke-linecap="round" stroke-linejoin="round"/>
<path d="M18.7648 43.5419L22.1848 45.8219L32.1548 30.8919C35.1048 26.4719 33.9048 20.4519 29.4848 17.5019L29.0348 17.2019C24.6148 14.2519 18.5948 15.4519 15.6448 19.8719L11.8848 25.5019" stroke="#3A3734" stroke-width="2" stroke-miterlimit="10" stroke-linecap="round" stroke-linejoin="round"/>
<path d="M37.2649 14.7319C37.2649 14.7319 44.7649 8.33189 45.6149 5.70189C46.4649 3.07189 44.3849 1.69189 44.3849 1.69189C44.3849 1.69189 42.4549 0.121889 40.1949 1.71189C37.9349 3.30189 34.0649 12.3719 34.0649 12.3719" stroke="#3A3734" stroke-width="2" stroke-miterlimit="10" stroke-linecap="round" stroke-linejoin="round"/>
</svg>
