<svg width="12" height="14" viewBox="0 0 12 14" fill="none" xmlns="http://www.w3.org/2000/svg">
<path d="M7.90853 12.9999H3.14229C2.58124 12.9999 2.12744 12.5695 2.12744 12.0373V4.17993H8.92338V12.0373C8.92338 12.5695 8.46958 12.9999 7.90853 12.9999Z" stroke="white" stroke-miterlimit="10" stroke-linecap="round" stroke-linejoin="round"/>
<path d="M8.92355 3.0166H1C1 3.65834 1.5473 4.17747 2.22387 4.17747H8.92079V3.0166H8.92355Z" stroke="white" stroke-miterlimit="10" stroke-linecap="round" stroke-linejoin="round"/>
<path d="M8.92338 3.01649H2.12744V2.68258C2.12744 2.15041 2.58124 1.71997 3.14229 1.71997H7.90853C8.46958 1.71997 8.92338 2.15041 8.92338 2.68258V3.01649Z" stroke="white" stroke-miterlimit="10" stroke-linecap="round" stroke-linejoin="round"/>
<path d="M6.08268 1.72H4.60303V1.70174C4.60303 1.31565 4.93306 1 5.34285 1C5.74989 1 6.08268 1.31304 6.08268 1.70174V1.72Z" stroke="white" stroke-miterlimit="10" stroke-linecap="round" stroke-linejoin="round"/>
<path d="M9.92462 10.8034H8.92627V4.17993H9.92462C10.5187 4.17993 11 4.63645 11 5.19993V9.78341C11 10.3443 10.5187 10.8034 9.92462 10.8034Z" stroke="white" stroke-miterlimit="10" stroke-linecap="round" stroke-linejoin="round"/>
<path d="M8.92338 8.06445H2.12744V8.8575H8.92338V8.06445Z" stroke="white" stroke-miterlimit="10" stroke-linecap="round" stroke-linejoin="round"/>
<path d="M5.34277 4.28174V7.8687" stroke="white" stroke-miterlimit="10" stroke-linecap="round" stroke-linejoin="round"/>
</svg>
