<svg width="13" height="14" viewBox="0 0 13 14" fill="none" xmlns="http://www.w3.org/2000/svg">
<path d="M7.50301 11.4821C8.08859 10.0916 7.12103 8.31318 5.34192 7.50998C3.56281 6.70679 1.64586 7.18294 1.06028 8.57349C0.474703 9.96404 1.44225 11.7424 3.22136 12.5456C5.00048 13.3488 6.91743 12.8727 7.50301 11.4821Z" stroke="white" stroke-miterlimit="10" stroke-linecap="round" stroke-linejoin="round"/>
<path d="M1.29492 8.50659C1.29492 8.50659 2.84649 10.2931 4.05825 10.1349C5.27 9.97672 5.9233 10.4704 7.30891 11.8396" stroke="white" stroke-miterlimit="10" stroke-linecap="round" stroke-linejoin="round"/>
<path d="M5.01953 7.30917C5.03797 5.95905 6.29451 4.80531 8.03048 4.47528C9.94031 4.11252 11.7 5.02897 11.966 6.52092C12.2321 8.01287 10.8992 9.51574 8.98934 9.8785C8.51255 9.9685 8.04365 9.97941 7.60636 9.92214" stroke="white" stroke-miterlimit="10" stroke-linecap="round" stroke-linejoin="round"/>
<path d="M11.8053 6.71194C11.8053 6.71194 9.55306 6.12825 8.63634 6.96015C7.71699 7.79204 6.9952 7.7484 5.10645 7.41292" stroke="white" stroke-miterlimit="10" stroke-linecap="round" stroke-linejoin="round"/>
<path d="M5.12487 5.5787C6.88213 5.24463 8.10923 3.86036 7.86566 2.48686C7.62209 1.11336 6.0001 0.270739 4.24284 0.604817C2.48558 0.938894 1.25848 2.32316 1.50205 3.69666C1.74562 5.07016 3.36761 5.91278 5.12487 5.5787Z" stroke="white" stroke-miterlimit="10" stroke-linecap="round" stroke-linejoin="round"/>
<path d="M7.72012 2.66427C7.72012 2.66427 5.64696 2.12695 4.80137 2.89338C3.95578 3.65982 3.21028 3.62981 1.47168 3.3216" stroke="white" stroke-miterlimit="10" stroke-linecap="round" stroke-linejoin="round"/>
</svg>
