<svg width="46" height="50" viewBox="0 0 46 50" fill="none" xmlns="http://www.w3.org/2000/svg">
<path d="M44.5498 8.16968C37.2998 9.85968 17.0898 23.6397 13.5298 36.5697" stroke="#3A3734" stroke-width="2" stroke-miterlimit="10" stroke-linecap="round" stroke-linejoin="round"/>
<path d="M11.5501 48.4697C14.8362 48.4697 17.5001 45.8058 17.5001 42.5197C17.5001 39.2336 14.8362 36.5697 11.5501 36.5697C8.264 36.5697 5.6001 39.2336 5.6001 42.5197C5.6001 45.8058 8.264 48.4697 11.5501 48.4697Z" stroke="#3A3734" stroke-width="2" stroke-miterlimit="10" stroke-linecap="round" stroke-linejoin="round"/>
<path d="M8.72021 43.6397C8.72021 43.6397 11.3202 43.2997 11.3202 45.5997" stroke="#3A3734" stroke-width="2" stroke-miterlimit="10" stroke-linecap="round" stroke-linejoin="round"/>
<path d="M24.9998 42.5196C28.2859 42.5196 30.9498 39.8557 30.9498 36.5696C30.9498 33.2835 28.2859 30.6196 24.9998 30.6196C21.7137 30.6196 19.0498 33.2835 19.0498 36.5696C19.0498 39.8557 21.7137 42.5196 24.9998 42.5196Z" stroke="#3A3734" stroke-width="2" stroke-miterlimit="10" stroke-linecap="round" stroke-linejoin="round"/>
<path d="M24.1899 39.4997C24.1899 39.4997 25.4899 37.2197 27.3199 38.5997" stroke="#3A3734" stroke-width="2" stroke-miterlimit="10" stroke-linecap="round" stroke-linejoin="round"/>
<path d="M6.95 33.3596C10.2361 33.3596 12.9 30.6957 12.9 27.4096C12.9 24.1235 10.2361 21.4596 6.95 21.4596C3.66391 21.4596 1 24.1235 1 27.4096C1 30.6957 3.66391 33.3596 6.95 33.3596Z" stroke="#3A3734" stroke-width="2" stroke-miterlimit="10" stroke-linecap="round" stroke-linejoin="round"/>
<path d="M3.91016 27.2396C3.91016 27.2396 6.42016 28.0196 5.45016 30.1096" stroke="#3A3734" stroke-width="2" stroke-miterlimit="10" stroke-linecap="round" stroke-linejoin="round"/>
<path d="M12.71 25.9297C12.71 25.9297 16.01 24.2497 19.67 25.9297C19.67 25.9297 22.81 27.4097 22.9 31.0097" stroke="#3A3734" stroke-width="2" stroke-miterlimit="10" stroke-linecap="round" stroke-linejoin="round"/>
<path d="M11.5498 13.4097C11.5498 13.4097 21.6698 12.9497 27.9198 17.9497" stroke="#3A3734" stroke-width="2" stroke-miterlimit="10" stroke-linecap="round" stroke-linejoin="round"/>
<path d="M24.1902 15.6096C24.1902 15.6096 20.5402 2.53964 2.91016 13.0396C2.91016 13.0396 12.3402 22.0596 23.6902 15.3696" stroke="#3A3734" stroke-width="2" stroke-miterlimit="10" stroke-linecap="round" stroke-linejoin="round"/>
<path d="M33.1401 14.7296C33.1401 14.7296 36.6601 20.6896 36.7901 26.6896" stroke="#3A3734" stroke-width="2" stroke-miterlimit="10" stroke-linecap="round" stroke-linejoin="round"/>
<path d="M35.3702 19.6597C35.3702 19.6597 27.9202 24.0997 36.7902 36.8297C36.7902 36.8297 46.0502 23.9497 35.3702 19.6597Z" stroke="#3A3734" stroke-width="2" stroke-miterlimit="10" stroke-linecap="round" stroke-linejoin="round"/>
<path d="M35.79 12.3197C35.79 12.3197 29.85 7.6897 25 5.9397" stroke="#3A3734" stroke-width="2" stroke-miterlimit="10" stroke-linecap="round" stroke-linejoin="round"/>
<path d="M32.14 9.73965C32.14 9.73965 34.76 -1.31035 13.52 1.43965C13.52 1.43965 22.55 14.1597 32.79 10.1797" stroke="#3A3734" stroke-width="2" stroke-miterlimit="10" stroke-linecap="round" stroke-linejoin="round"/>
</svg>
