<svg width="35" height="35" viewBox="0 0 35 35" fill="none" xmlns="http://www.w3.org/2000/svg">
<g clip-path="url(#clip0_18774_672)">
<path d="M17.4979 0L0 17.4979L17.4979 34.9958L34.9958 17.4979L17.4979 0ZM3.57032 17.4979L17.4979 3.57032L31.4255 17.4979L17.4979 31.4255L3.57032 17.4979Z" fill="black"/>
<path d="M17.498 6.96191C13.4283 6.96191 9.72485 11.9845 9.72485 17.4981C9.72485 23.0117 13.4283 28.0343 17.498 28.0343C21.5677 28.0343 25.2712 23.0117 25.2712 17.4981C25.2712 11.9845 21.5677 6.96191 17.498 6.96191ZM12.2549 17.4981C12.2549 15.0763 13.1911 12.6836 14.5103 11.1523C14.3854 11.7057 14.3188 12.2758 14.3188 12.8584C14.3188 14.9473 15.1344 16.9114 16.6075 18.3886C18.5383 20.3194 18.6631 23.3779 16.9862 25.4544C14.5227 24.9925 12.2549 21.2807 12.2549 17.4981ZM20.4816 23.8523C21.0475 21.3223 20.3568 18.5676 18.3927 16.6035C16.4619 14.6727 16.337 11.6142 18.014 9.53771C20.4733 10.0038 22.7453 13.7156 22.7453 17.4981C22.7453 19.9283 21.8049 22.3251 20.4816 23.8523Z" fill="black"/>
</g>
<defs>
<clipPath id="clip0_18774_672">
<rect width="35" height="35" fill="white"/>
</clipPath>
</defs>
</svg>
